<?xml version="1.0" encoding="UTF-8"?>
<!-- Generator: Adobe Illustrator 22.0.1, SVG Export Plug-In . SVG Version: 6.00 Build 0)  -->
<svg version="1.1" id="Layer_1" xmlns="http://www.w3.org/2000/svg" xmlns:xlink="http://www.w3.org/1999/xlink" x="0px" y="0px" viewBox="0 0 67.1 26.2" style="enable-background:new 0 0 67.1 26.2;" xml:space="preserve">
<style type="text/css">
	.st0{fill:#231F20;}
</style>
<path class="st0" d="M31.6,25.3h-2v-12h2V25.3z M30.6,11.3c-0.7,0-1.3-0.6-1.3-1.3s0.6-1.3,1.3-1.3s1.3,0.6,1.3,1.3  C31.9,10.7,31.3,11.3,30.6,11.3z M42.7,25.6c-5.3,0-8.7-3.8-8.7-9.8S37.4,6,42.7,6s8.7,3.8,8.7,9.8S48,25.6,42.7,25.6z M49.5,15.8  c0-5-2.6-8.2-6.8-8.2s-6.8,3.2-6.8,8.2c0,5,2.6,8.1,6.8,8.1S49.5,20.8,49.5,15.8z M60.2,25.6c-4,0-6.8-2.2-7-5.5h1.8  c0.2,2.3,2.3,3.8,5.3,3.8c2.9,0,4.9-1.6,4.9-3.7c0-1.8-1.2-2.8-4.1-3.5l-2.4-0.6c-3.5-0.9-5.1-2.4-5.1-4.9c0-3.1,2.8-5.3,6.5-5.3  c3.7,0,6.4,2.2,6.5,5.2H65C64.9,9,63,7.6,60.3,7.6c-2.6,0-4.6,1.5-4.6,3.6c0,1.6,1.2,2.6,4,3.3l2.1,0.5c3.8,1,5.4,2.4,5.4,5.1  C67.1,23.4,64.5,25.6,60.2,25.6z M21.6,20.4c-0.4,0.9-0.9,1.8-1.4,2.5c-0.7,1.1-1.3,1.8-1.8,2.2c-0.7,0.7-1.5,1-2.3,1  c-0.6,0-1.3-0.2-2.2-0.5c-0.8-0.3-1.6-0.5-2.3-0.5c-0.7,0-1.5,0.2-2.4,0.5c-0.8,0.3-1.5,0.5-2.1,0.5c-0.8,0-1.6-0.3-2.4-1.1  c-0.5-0.4-1.1-1.2-1.9-2.3c-0.8-1.1-1.5-2.5-2-4C0.3,17.2,0,15.6,0,14.1c0-1.8,0.4-3.3,1.1-4.5c0.6-1,1.4-1.8,2.4-2.4  c1-0.6,2.1-0.9,3.2-0.9c0.6,0,1.5,0.2,2.5,0.6c1,0.4,1.7,0.6,2,0.6c0.2,0,0.9-0.2,2.2-0.7c1.2-0.4,2.2-0.6,3-0.5  c2.2,0.2,3.9,1,5,2.6c-2,1.2-2.9,2.9-2.9,5c0,1.7,0.6,3.1,1.8,4.2c0.5,0.5,1.1,0.9,1.8,1.2C21.9,19.6,21.7,20,21.6,20.4z M16.5,0.5  c0,1.3-0.5,2.5-1.4,3.7c-1.1,1.3-2.5,2.1-4,2c0-0.2,0-0.3,0-0.5c0-1.3,0.5-2.6,1.5-3.7c0.5-0.6,1.1-1,1.8-1.4  C15.1,0.2,15.8,0,16.5,0C16.5,0.2,16.5,0.3,16.5,0.5L16.5,0.5z"/>
</svg>