<svg xmlns="http://www.w3.org/2000/svg" viewBox="0 0 64 64"><defs><style>.cls-1,.cls-4{fill:#fff;}.cls-1{opacity:0;}.cls-2{fill:#646568;}.cls-3{fill:#72be49;}</style></defs><title>icon-android</title><g id="Layer_2" data-name="Layer 2"><g id="Layer_1-2" data-name="Layer 1"><g id="_icon-android_" data-name="&lt;icon-android&gt;"><rect class="cls-1" width="64" height="64"/><path class="cls-2" d="M11.72,54.52V53.05H9.81s-1.54-.58-1.45-1.95a2,2,0,0,1,1.29-1.8h3.22v5.17h1.45V47.81H9.91A3.19,3.19,0,0,0,7,51.16a3.52,3.52,0,0,0,3.1,3.34Z"/><path class="cls-2" d="M50.41,53.12v1.34l3.82-.05A3,3,0,0,0,57,51.1s.17-3-2.72-3.31h-3.8v1.43h3.4a1.76,1.76,0,0,1,1.61,2,1.65,1.65,0,0,1-1.69,1.88Z"/><path class="cls-2" d="M24,53v1.34l3.82-.05A3,3,0,0,0,30.54,51s.17-3-2.72-3.31H24v1.43h3.4a1.76,1.76,0,0,1,1.61,2A1.65,1.65,0,0,1,27.34,53Z"/><path class="cls-2" d="M17.22,54.47H15.87l.05-4.07a3.14,3.14,0,0,1,3.31-2.92,3.1,3.1,0,0,1,3.31,2.9v4.05H21.11V50.8a1.81,1.81,0,0,0-2-1.72,1.67,1.67,0,0,0-1.88,1.8Z"/><path class="cls-2" d="M32.06,49.22V47.79h3.75a2.15,2.15,0,0,1,2.06,2.37,2.45,2.45,0,0,1-1,2,.1.1,0,0,0,0,.15l0,0a2.39,2.39,0,0,1,.84,2.15H36.23s-.09-1.83-1.54-1.83H32V51.07H35.6a.88.88,0,0,0,.81-1s.1-.88-1-.88Z"/><path class="cls-2" d="M42.64,47.57A3.47,3.47,0,1,0,46.11,51,3.47,3.47,0,0,0,42.64,47.57Zm0,5.47a2,2,0,1,1,2-2A2,2,0,0,1,42.64,53Z"/><rect class="cls-2" x="47.51" y="47.81" width="1.52" height="6.69"/><path class="cls-3" d="M22.95,19.89H40.87V34.64S40.59,36,39.55,36h-2v4.73a2,2,0,0,1-4,0v-4.6H30.28v4.73a1.81,1.81,0,0,1-2.05,1.78,1.9,1.9,0,0,1-1.91-1.91V36H24.37a1.33,1.33,0,0,1-1.42-1.42Z"/><path class="cls-3" d="M42.06,21.83A1.9,1.9,0,0,1,44,19.89a1.8,1.8,0,0,1,2,2v8.47a1.65,1.65,0,0,1-1.83,1.83c-2,0-2.07-1.33-2.07-1.91Z"/><path class="cls-3" d="M17.75,21.83a1.9,1.9,0,0,1,1.94-1.94,1.8,1.8,0,0,1,2,2v8.47a1.65,1.65,0,0,1-1.83,1.83c-2,0-2.07-1.33-2.07-1.91Z"/><path class="cls-3" d="M36.24,12.29,37.79,10c.26-.37-.07-.46-.07-.46-.22-.17-.39.13-.39.13l-1.61,2.39a10.24,10.24,0,0,0-7.56,0c-.48-.7-1.73-2.49-1.82-2.54s-.26.07-.26.07c-.28.22-.15.33-.15.33l1.64,2.41a8.07,8.07,0,0,0-4.64,6.22H40.86A8,8,0,0,0,36.24,12.29Z"/><circle class="cls-4" cx="35.77" cy="15.12" r="1"/><circle class="cls-4" cx="28.09" cy="15.12" r="1"/></g></g></g></svg>