<svg xmlns="http://www.w3.org/2000/svg" viewBox="0 0 120.04 120"><defs><style>.cls-1{fill:none;}.cls-2{fill:#024765;}.cls-3{fill:#04ade1;}.cls-4{fill:#084b68;}.cls-5{fill:#014664;}.cls-6{fill:#01ace0;}</style></defs><title>Asset 3</title><g id="Layer_2" data-name="Layer 2"><g id="Layer_1-2" data-name="Layer 1"><rect class="cls-1" x="0.04" width="120" height="120"/><g id="O5NERA.tif"><path class="cls-2" d="M120,61.29c-.14.17-.12.39-.19.58a3.56,3.56,0,0,1-3,2.53,5.51,5.51,0,0,1-4.86-1.7c-.26-.24-.37-.46,0-.73s.43-.56.67-.6.46.35.69.54a3.56,3.56,0,0,0,3.67.83,2.11,2.11,0,0,0,.7-3.6,4.42,4.42,0,0,0-1.63-.9,12.81,12.81,0,0,1-2-.78,3.4,3.4,0,0,1-1.82-3.92,3.31,3.31,0,0,1,3.14-2.6,5,5,0,0,1,3.71,1.18c.2.16.21.25,0,.43s-.38.66-.66.79-.54-.3-.83-.44a3.4,3.4,0,0,0-2.55-.34,1.93,1.93,0,0,0-1.33,1.73,1.61,1.61,0,0,0,1,1.77c.74.35,1.53.61,2.29.93a4.87,4.87,0,0,1,2.65,2.26c.17.34.19.73.34,1.08Z"/><path class="cls-3" d="M.08,67.52l-.08,0V58.33l.16.08c-.14.13-.08.3-.08.45Z"/><path class="cls-3" d="M.08,56.46l-.08,0V47.27l.17.07c-.15.13-.09.3-.09.45Z"/><path class="cls-2" d="M107.68,57.7a6.81,6.81,0,1,1-6.83-6.87A6.83,6.83,0,0,1,107.68,57.7Zm-1.58,0A5.23,5.23,0,1,0,100.75,63,5.29,5.29,0,0,0,106.1,57.72Z"/><path class="cls-2" d="M63,50.45a.53.53,0,0,1,.07.41c0,4.34,0,8.68,0,13,0,.38-.11.5-.47.46a4.71,4.71,0,0,0-.84,0c-.25,0-.32-.08-.31-.32,0-3,0-6,0-9,0,0,0-.06,0-.16-1.65,2.49-3.59,4.69-5.37,7.08-.67-.88-1.32-1.74-2-2.59-1.64-2.1-3.24-4.24-4.78-6.42a1.08,1.08,0,0,1-.22-.7,13.84,13.84,0,0,1,.09-1.79l6.88,8.94Z"/><path class="cls-4" d="M68.26,57.65c0-2.1,0-4.19,0-6.29,0-.3.08-.38.37-.37h7.49c.3,0,.41.07.38.38a2.81,2.81,0,0,0,0,.71c0,.35-.07.46-.43.45-1.93,0-3.85,0-5.77,0-.35,0-.45.09-.44.44,0,1.16,0,2.33,0,3.49,0,.34.11.41.43.41,1.69,0,3.39,0,5.08,0,.3,0,.41.08.38.38a3.86,3.86,0,0,0,0,.76c0,.31-.07.41-.39.41-1.68,0-3.37,0-5,0-.38,0-.46.11-.45.47q0,1.8,0,3.6c0,.31.09.38.38.37h6.09c.32,0,.47.05.42.4s.16.86-.09,1.07-.68.06-1,.06h-7c-.31,0-.4-.08-.39-.4C68.27,61.84,68.26,59.74,68.26,57.65Z"/><path class="cls-2" d="M85.23,50.92a5,5,0,0,1,3.45,1.25c.14.12.15.21,0,.32l0,.06c-.22.29-.39.7-.68.82s-.54-.33-.84-.49a3.33,3.33,0,0,0-2.47-.33,1.89,1.89,0,0,0-1.35,1.66,1.62,1.62,0,0,0,1,1.85c.72.35,1.47.6,2.22.9a6.26,6.26,0,0,1,1.55.88,3.56,3.56,0,0,1,1.37,3.8,3.37,3.37,0,0,1-2.68,2.67,5.43,5.43,0,0,1-5.39-1.76c-.16-.17-.19-.31,0-.48s.47-.61.76-.68.5.38.77.58a3.64,3.64,0,0,0,3.42.84,2,2,0,0,0,1.55-1.61A2.07,2.07,0,0,0,87,59a5.7,5.7,0,0,0-1.71-.85A7.45,7.45,0,0,1,83,57.05a3.43,3.43,0,0,1-1.08-3.86A3.26,3.26,0,0,1,84.8,51Z"/><path class="cls-3" d="M37.34,67.61,29.24,63l8.1-4.65Z"/><path class="cls-3" d="M29.27,51.89l8-4.61c.12.09.09.19.09.28,0,2.87,0,5.73,0,8.6,0,.3,0,.39-.34.21L29.45,52Z"/><path class="cls-3" d="M19.22,47.26l7.93,4.6c0,.13-.11.15-.19.2l-7.44,4.3c-.18.1-.35.24-.35-.15q0-4.4,0-8.81A.63.63,0,0,1,19.22,47.26Z"/><path class="cls-5" d="M27.23,63l-3.09,1.79-4.63,2.67c-.17.1-.33.24-.33-.13,0-3,0-5.89,0-8.84a.31.31,0,0,1,0-.12Z"/><path class="cls-5" d="M19.21,78.67V69.39l8,4.65Z"/><path class="cls-5" d="M19.21,36.19l8,4.64-8,4.64Z"/><path class="cls-3" d="M18.17,47.23v9c0,.47-.25.16-.36.09q-3-1.7-5.92-3.41l-1.78-1Z"/><path class="cls-2" d="M18.17,58.3v9c0,.25,0,.31-.28.17L10.11,63Z"/><path class="cls-2" d="M10.11,74l8.05-4.66v9.31Z"/><path class="cls-2" d="M10.13,40.82l8-4.62a.44.44,0,0,1,.06.34q0,4.26,0,8.52c0,.34,0,.43-.37.23-2.46-1.44-4.93-2.86-7.4-4.28Z"/><path class="cls-6" d="M28.77,41.72l8.08,4.65-1.75,1-6,3.47c-.21.13-.34.21-.34-.16q0-4.36,0-8.72C28.75,41.9,28.76,41.83,28.77,41.72Z"/><path class="cls-6" d="M36.85,57.42l-8.08,4.67v-9.3Z"/><path class="cls-6" d="M28.76,73.16V63.85l8.09,4.64Z"/><path class="cls-6" d="M17.65,46.37,9.64,51v-9.3Z"/><path class="cls-5" d="M9.62,73.16V63.85l8,4.64Z"/><path class="cls-6" d="M19.71,46.35l8-4.63c0,.12,0,.18,0,.25v8.68c0,.25,0,.39-.31.21q-3.73-2.19-7.49-4.36Z"/><path class="cls-5" d="M9.64,52.79l8,4.63-8,4.65Z"/><path class="cls-5" d="M19.68,68.49l8-4.63v9.29Z"/><path class="cls-5" d="M27.69,62.07l-8-4.65,8-4.63Z"/><path class="cls-6" d="M.53,46.37l8-4.65V51Z"/><path class="cls-6" d="M8.57,73.15l-8-4.66L3,67.09l5.3-3c.27-.16.34-.12.34.2q0,4.33,0,8.68S8.58,73,8.57,73.15Z"/><path class="cls-6" d="M.53,57.42l8-4.63v9.28Z"/><path class="cls-6" d="M.08,56.46V47.79c0-.15-.06-.32.09-.45l4.75,2.73C6,50.66,7,51.26,8,51.86c0,.15-.13.16-.22.21L.37,56.36C.28,56.41.2,56.51.08,56.46Z"/><path class="cls-6" d="M.08,67.52V58.86c0-.15-.06-.32.08-.45l5.19,3L8,62.92c0,.15-.12.17-.19.21L.4,67.41C.3,67.46.22,67.57.08,67.52Z"/><path class="cls-4" d="M49.21,55.28l1.47,1.94a.6.6,0,0,1,.07.39q0,3.18,0,6.36c0,.27-.06.38-.35.36a8.34,8.34,0,0,0-1,0c-.18,0-.27,0-.27-.24,0-2.91,0-5.81,0-8.72C49.15,55.35,49.18,55.33,49.21,55.28Z"/></g></g></g></svg>